<?xml version="1.0" standalone="no"?>
<!DOCTYPE svg PUBLIC "-//W3C//DTD SVG 20010904//EN"
 "http://www.w3.org/TR/2001/REC-SVG-20010904/DTD/svg10.dtd">
<svg version="1.0" xmlns="http://www.w3.org/2000/svg"
 width="500.000000pt" height="500.000000pt" viewBox="0 0 500.000000 500.000000"
 preserveAspectRatio="xMidYMid meet">

<g transform="translate(0.000000,500.000000) scale(0.100000,-0.100000)"
fill="#000000" stroke="none">
<path d="M360 4099 c-65 -29 -127 -94 -150 -157 -20 -52 -20 -80 -20 -1512 0
-1432 0 -1460 20 -1512 23 -63 85 -128 150 -157 45 -20 56 -21 2140 -21 2084
0 2095 1 2140 21 65 29 127 94 150 157 20 52 20 80 20 1512 0 1432 0 1460 -20
1512 -23 63 -85 128 -150 157 -45 20 -56 21 -2140 21 -2084 0 -2095 -1 -2140
-21z m2317 -393 l28 -24 0 -1240 c0 -1205 -1 -1240 -19 -1261 -23 -25 -72 -28
-98 -4 -17 15 -18 68 -18 1264 l0 1248 26 20 c34 27 47 26 81 -3z m1493 -364
c63 -16 136 -39 163 -51 l47 -20 0 -235 0 -234 -87 -6 c-49 -4 -112 -9 -140
-11 l-53 -5 -1 102 c0 156 -7 179 -51 201 -50 25 -201 33 -295 18 -195 -33
-332 -170 -387 -388 -24 -92 -35 -266 -25 -395 20 -270 105 -435 262 -513 89
-44 179 -59 312 -53 107 6 178 27 195 59 6 10 10 76 10 148 l0 130 73 -6 c39
-3 104 -8 142 -12 l70 -6 3 -236 2 -236 -57 -26 c-74 -33 -186 -63 -291 -78
-112 -16 -386 -7 -476 15 -313 77 -504 288 -573 632 -25 128 -25 445 1 564 37
172 106 321 196 423 84 95 248 191 387 226 43 11 87 22 98 25 11 3 97 3 190 2
152 -3 182 -6 285 -34z m-2950 -102 l0 -109 -35 -6 c-19 -3 -51 -7 -70 -10
-62 -10 -65 -22 -65 -282 l0 -233 390 0 390 0 0 255 0 255 -52 0 c-101 0 -98
-4 -98 126 l0 114 335 0 335 0 0 -110 0 -109 -37 -6 c-21 -3 -52 -8 -69 -11
-17 -2 -40 -14 -50 -25 -18 -20 -19 -48 -19 -678 l0 -656 78 -3 77 -3 0 -119
0 -120 -335 0 -336 0 3 113 3 112 57 6 c32 4 69 14 83 23 l25 16 0 265 0 265
-390 0 -390 0 2 -277 3 -278 78 -3 77 -3 0 -119 0 -120 -335 0 -336 0 3 113 3
112 30 3 c67 6 97 14 116 33 18 18 19 39 19 679 l0 660 -52 0 c-101 0 -98 -4
-98 126 l0 114 330 0 330 0 0 -110z"/>
</g>
</svg>
