<svg xmlns="http://www.w3.org/2000/svg" xmlns:xlink="http://www.w3.org/1999/xlink" width="500" zoomAndPan="magnify" viewBox="0 0 375 374.999991" height="500" preserveAspectRatio="xMidYMid meet" version="1.0"><defs><g/><clipPath id="b78b5a7ea2"><path d="M 4.542969 25.761719 L 367.539062 25.761719 L 367.539062 292.761719 L 4.542969 292.761719 Z M 4.542969 25.761719 " clip-rule="nonzero"/></clipPath><clipPath id="7a01d44b7d"><path d="M 30.042969 25.761719 L 341.710938 25.761719 C 348.472656 25.761719 354.960938 28.449219 359.742188 33.230469 C 364.523438 38.011719 367.210938 44.5 367.210938 51.261719 L 367.210938 267.273438 C 367.210938 274.035156 364.523438 280.523438 359.742188 285.304688 C 354.960938 290.085938 348.472656 292.773438 341.710938 292.773438 L 30.042969 292.773438 C 23.28125 292.773438 16.792969 290.085938 12.011719 285.304688 C 7.230469 280.523438 4.542969 274.035156 4.542969 267.273438 L 4.542969 51.261719 C 4.542969 44.5 7.230469 38.011719 12.011719 33.230469 C 16.792969 28.449219 23.28125 25.761719 30.042969 25.761719 Z M 30.042969 25.761719 " clip-rule="nonzero"/></clipPath><clipPath id="2789ffd036"><path d="M 187.5 65.691406 L 198.613281 65.691406 L 198.613281 262.332031 L 187.5 262.332031 Z M 187.5 65.691406 " clip-rule="nonzero"/></clipPath><clipPath id="ce9599cc26"><path d="M 193.058594 65.691406 C 196.125 65.691406 198.613281 68.179688 198.613281 71.246094 L 198.613281 256.773438 C 198.613281 259.84375 196.125 262.332031 193.058594 262.332031 C 189.988281 262.332031 187.5 259.84375 187.5 256.773438 L 187.5 71.246094 C 187.5 68.179688 189.988281 65.691406 193.058594 65.691406 Z M 193.058594 65.691406 " clip-rule="nonzero"/></clipPath><clipPath id="5c50f8a696"><path d="M 187.5 65.722656 L 198.75 65.722656 L 198.75 262.191406 L 187.5 262.191406 Z M 187.5 65.722656 " clip-rule="nonzero"/></clipPath><clipPath id="663708006c"><path d="M 193.054688 65.722656 C 196.121094 65.722656 198.609375 68.207031 198.609375 71.277344 L 198.609375 256.734375 C 198.609375 259.800781 196.121094 262.289062 193.054688 262.289062 C 189.988281 262.289062 187.5 259.800781 187.5 256.734375 L 187.5 71.277344 C 187.5 68.207031 189.988281 65.722656 193.054688 65.722656 Z M 193.054688 65.722656 " clip-rule="nonzero"/></clipPath></defs><g clip-path="url(#b78b5a7ea2)"><g clip-path="url(#7a01d44b7d)"><path stroke-linecap="butt" transform="matrix(0.75, 0, 0, 0.75, 4.542807, 25.761744)" fill="none" stroke-linejoin="miter" d="M 34.000219 -0.0000336511 L 449.557537 -0.0000336511 C 458.573163 -0.0000336511 467.224205 3.5833 473.599206 9.9583 C 479.974206 16.333301 483.55754 24.984343 483.55754 33.999969 L 483.55754 322.015612 C 483.55754 331.031238 479.974206 339.68228 473.599206 346.057281 C 467.224205 352.432281 458.573163 356.015615 449.557537 356.015615 L 34.000219 356.015615 C 24.984593 356.015615 16.333551 352.432281 9.95855 346.057281 C 3.58355 339.68228 0.000216304 331.031238 0.000216304 322.015612 L 0.000216304 33.999969 C 0.000216304 24.984343 3.58355 16.333301 9.95855 9.9583 C 16.333551 3.5833 24.984593 -0.0000336511 34.000219 -0.0000336511 Z M 34.000219 -0.0000336511 " stroke="#000000" stroke-width="36" stroke-opacity="1" stroke-miterlimit="4"/></g></g><g clip-path="url(#2789ffd036)"><g clip-path="url(#ce9599cc26)"><path fill="#f6f68d" d="M 187.5 65.691406 L 198.613281 65.691406 L 198.613281 262.332031 L 187.5 262.332031 Z M 187.5 65.691406 " fill-opacity="1" fill-rule="nonzero"/></g></g><g clip-path="url(#5c50f8a696)"><g clip-path="url(#663708006c)"><path stroke-linecap="butt" transform="matrix(0.75, 0, 0, 0.75, 187.499992, 65.721132)" fill="none" stroke-linejoin="miter" d="M 7.406261 0.00203169 C 11.494804 0.00203169 14.812512 3.314532 14.812512 7.408283 L 14.812512 254.684356 C 14.812512 258.772899 11.494804 262.090607 7.406261 262.090607 C 3.317719 262.090607 0.0000104167 258.772899 0.0000104167 254.684356 L 0.0000104167 7.408283 C 0.0000104167 3.314532 3.317719 0.00203169 7.406261 0.00203169 Z M 7.406261 0.00203169 " stroke="#000000" stroke-width="36" stroke-opacity="1" stroke-miterlimit="4"/></g></g><g fill="#000000" fill-opacity="1"><g transform="translate(11.721993, 245.426525)"><g><path d="M 115.515625 -27.078125 L 115.515625 -67.125 L 50 -67.125 L 50 -20.375 L 63.421875 -19.671875 L 63.421875 0 L 7.40625 0 L 7.40625 -18.75 L 15.046875 -19.4375 C 19.523438 -19.90625 21.765625 -22.066406 21.765625 -25.921875 L 21.765625 -133.5625 L 8.5625 -134.265625 L 8.5625 -153.9375 L 64.578125 -153.9375 L 64.578125 -135.1875 L 56.9375 -134.5 C 54.46875 -134.1875 52.691406 -133.523438 51.609375 -132.515625 C 50.535156 -131.515625 50 -129.628906 50 -126.859375 L 50 -90.96875 L 115.515625 -90.96875 L 115.515625 -133.5625 L 102.3125 -134.265625 L 102.3125 -153.9375 L 158.328125 -153.9375 L 158.328125 -135.1875 L 150.703125 -134.5 C 146.222656 -134.03125 143.984375 -131.554688 143.984375 -127.078125 L 143.984375 -20.375 L 157.171875 -19.671875 L 157.171875 0 L 101.15625 0 L 101.15625 -18.75 L 108.796875 -19.4375 C 111.109375 -19.75 112.804688 -20.40625 113.890625 -21.40625 C 114.972656 -22.414062 115.515625 -24.304688 115.515625 -27.078125 Z M 115.515625 -27.078125 "/></g></g></g><g fill="#000000" fill-opacity="1"><g transform="translate(213.870152, 245.426525)"><g><path d="M 100.921875 -129.40625 C 99.222656 -132.332031 92.898438 -133.796875 81.953125 -133.796875 C 67.597656 -133.796875 56.710938 -128.929688 49.296875 -119.203125 C 41.890625 -109.484375 38.1875 -95.441406 38.1875 -77.078125 C 38.1875 -38.960938 52.460938 -19.90625 81.015625 -19.90625 C 81.484375 -19.90625 83.53125 -19.90625 87.15625 -19.90625 C 90.78125 -19.90625 94.210938 -20.40625 97.453125 -21.40625 C 100.691406 -22.414062 102.617188 -23.457031 103.234375 -24.53125 C 103.859375 -25.613281 104.171875 -27.3125 104.171875 -29.625 L 104.171875 -48.15625 L 127.78125 -46.53125 L 127.78125 -6.484375 C 115.738281 -0.148438 100.460938 3.015625 81.953125 3.015625 C 58.335938 3.015625 40.316406 -3.617188 27.890625 -16.890625 C 15.472656 -30.171875 9.265625 -49.925781 9.265625 -76.15625 C 9.265625 -90.664062 11.347656 -103.320312 15.515625 -114.125 C 19.679688 -124.925781 25.3125 -133.335938 32.40625 -139.359375 C 46.289062 -150.929688 62.804688 -156.71875 81.953125 -156.71875 C 97.378906 -156.71875 111.882812 -153.550781 125.46875 -147.21875 L 125.46875 -107.875 L 101.859375 -106.25 L 101.859375 -124.3125 C 101.859375 -126.625 101.546875 -128.320312 100.921875 -129.40625 Z M 100.921875 -129.40625 "/></g></g></g><g fill="#000000" fill-opacity="1"><g transform="translate(14.89426, 356.547458)"><g><path d="M 27.828125 0.5625 C 25.742188 0.5625 24.703125 -0.816406 24.703125 -3.578125 C 24.703125 -3.921875 24.773438 -4.703125 24.921875 -5.921875 L 26.75 -18.5 L 14.515625 -18.5 L 12.578125 -7.390625 C 12.390625 -6.222656 11.953125 -5.390625 11.265625 -4.890625 L 11.265625 -4.78125 C 11.984375 -4.507812 12.707031 -4.375 13.4375 -4.375 C 13.957031 -4.375 14.460938 -4.476562 14.953125 -4.6875 C 15.453125 -4.894531 15.78125 -5 15.9375 -5 C 16.238281 -5 16.390625 -4.832031 16.390625 -4.5 C 16.390625 -4.082031 16.144531 -3.566406 15.65625 -2.953125 C 14.78125 -1.859375 14.03125 -1.09375 13.40625 -0.65625 C 12.78125 -0.21875 12.144531 0 11.5 0 C 11.15625 0 10.414062 -0.128906 9.28125 -0.390625 C 8.175781 -0.734375 7.242188 -0.90625 6.484375 -0.90625 C 5.691406 -0.90625 4.941406 -0.753906 4.234375 -0.453125 C 3.535156 -0.148438 3.109375 0 2.953125 0 C 2.691406 0 2.5625 -0.226562 2.5625 -0.6875 C 2.5625 -1.59375 3.164062 -2.578125 4.375 -3.640625 C 4.945312 -4.210938 5.363281 -4.695312 5.625 -5.09375 C 5.894531 -5.488281 6.125 -6.046875 6.3125 -6.765625 C 6.5 -7.492188 6.726562 -8.578125 7 -10.015625 L 10.984375 -34.421875 C 10.710938 -34.421875 10.273438 -34.476562 9.671875 -34.59375 C 9.066406 -34.707031 8.382812 -34.765625 7.625 -34.765625 C 6.519531 -34.765625 5.597656 -34.613281 4.859375 -34.3125 C 4.117188 -34.007812 3.445312 -33.460938 2.84375 -32.671875 C 2.65625 -32.398438 2.460938 -32.175781 2.265625 -32 C 2.078125 -31.832031 1.890625 -31.75 1.703125 -31.75 C 1.398438 -31.75 1.25 -31.941406 1.25 -32.328125 C 1.25 -32.585938 1.273438 -32.832031 1.328125 -33.0625 C 1.390625 -33.289062 1.421875 -33.441406 1.421875 -33.515625 C 1.765625 -35.296875 2.691406 -36.738281 4.203125 -37.84375 C 5.722656 -38.945312 7.566406 -39.5 9.734375 -39.5 C 10.179688 -39.5 10.898438 -39.457031 11.890625 -39.375 C 12.765625 -39.257812 13.675781 -39.203125 14.625 -39.203125 C 14.96875 -39.203125 15.820312 -39.257812 17.1875 -39.375 C 17.863281 -39.457031 18.335938 -39.5 18.609375 -39.5 C 17.585938 -36.457031 16.882812 -33.742188 16.5 -31.359375 L 15.25 -23.328125 L 27.546875 -23.328125 L 28.90625 -31.1875 C 29.738281 -35.8125 30.859375 -39.460938 32.265625 -42.140625 C 33.671875 -44.816406 35.5 -46.75 37.75 -47.9375 C 40.007812 -49.132812 42.90625 -49.8125 46.4375 -49.96875 C 47.3125 -49.96875 47.972656 -50.039062 48.421875 -50.1875 C 48.691406 -50.269531 48.910156 -50.347656 49.078125 -50.421875 C 49.253906 -50.492188 49.398438 -50.53125 49.515625 -50.53125 C 49.816406 -50.53125 49.96875 -50.320312 49.96875 -49.90625 C 49.96875 -49.21875 49.601562 -48.523438 48.875 -47.828125 C 48.15625 -47.128906 47.054688 -46.664062 45.578125 -46.4375 C 45.203125 -46.394531 44.1875 -46.28125 42.53125 -46.09375 C 40.882812 -45.90625 39.4375 -44.71875 38.1875 -42.53125 C 36.9375 -40.351562 35.96875 -37.066406 35.28125 -32.671875 L 31.359375 -7.390625 C 31.242188 -6.828125 31.1875 -6.394531 31.1875 -6.09375 C 31.1875 -5.707031 31.257812 -5.4375 31.40625 -5.28125 C 31.5625 -5.132812 31.769531 -5.0625 32.03125 -5.0625 C 32.832031 -5.0625 33.765625 -5.59375 34.828125 -6.65625 C 35.085938 -6.882812 35.332031 -7.09375 35.5625 -7.28125 C 35.789062 -7.46875 36 -7.5625 36.1875 -7.5625 C 36.414062 -7.5625 36.53125 -7.351562 36.53125 -6.9375 C 36.53125 -6.101562 36.066406 -5.078125 35.140625 -3.859375 C 34.210938 -2.648438 33.0625 -1.609375 31.6875 -0.734375 C 30.320312 0.128906 29.035156 0.5625 27.828125 0.5625 Z M 27.828125 0.5625 "/></g></g></g><g fill="#000000" fill-opacity="1"><g transform="translate(54.954846, 356.547458)"><g><path d="M 6.71875 0.5625 C 4.9375 0.5625 3.53125 -0.0859375 2.5 -1.390625 C 1.476562 -2.703125 0.96875 -4.59375 0.96875 -7.0625 C 0.96875 -10.132812 1.734375 -13.222656 3.265625 -16.328125 C 4.804688 -19.441406 6.742188 -22.015625 9.078125 -24.046875 C 11.410156 -26.078125 13.675781 -27.09375 15.875 -27.09375 C 17.65625 -27.09375 19.039062 -26.425781 20.03125 -25.09375 C 21.019531 -23.769531 21.515625 -21.910156 21.515625 -19.515625 C 21.515625 -16.597656 20.78125 -13.5625 19.3125 -10.40625 C 17.851562 -7.257812 15.976562 -4.644531 13.6875 -2.5625 C 11.394531 -0.476562 9.070312 0.5625 6.71875 0.5625 Z M 9.78125 -4.375 C 10.84375 -4.375 11.8125 -4.929688 12.6875 -6.046875 C 13.5625 -7.171875 14.242188 -8.679688 14.734375 -10.578125 C 15.234375 -12.484375 15.484375 -14.550781 15.484375 -16.78125 C 15.484375 -18.675781 15.269531 -20.039062 14.84375 -20.875 C 14.425781 -21.71875 13.785156 -22.140625 12.921875 -22.140625 C 11.890625 -22.140625 10.925781 -21.613281 10.03125 -20.5625 C 9.144531 -19.519531 8.425781 -18.085938 7.875 -16.265625 C 7.332031 -14.453125 7.0625 -12.425781 7.0625 -10.1875 C 7.0625 -6.3125 7.96875 -4.375 9.78125 -4.375 Z M 9.78125 -4.375 "/></g></g></g><g fill="#000000" fill-opacity="1"><g transform="translate(77.773447, 356.547458)"><g><path d="M 4.609375 0.5625 C 2.554688 0.5625 1.53125 -0.929688 1.53125 -3.921875 C 1.53125 -4.835938 1.609375 -5.75 1.765625 -6.65625 L 5.171875 -27.546875 C 5.972656 -32.660156 6.953125 -36.753906 8.109375 -39.828125 C 9.265625 -42.898438 10.8125 -45.195312 12.75 -46.71875 C 13.882812 -47.59375 15.007812 -48.179688 16.125 -48.484375 C 17.25 -48.785156 18.722656 -49.070312 20.546875 -49.34375 C 21.722656 -49.53125 22.488281 -49.671875 22.84375 -49.765625 C 23.207031 -49.859375 23.445312 -49.90625 23.5625 -49.90625 C 23.9375 -49.90625 24.125 -49.695312 24.125 -49.28125 C 24.125 -48.9375 23.984375 -48.523438 23.703125 -48.046875 C 23.421875 -47.578125 23.070312 -47.132812 22.65625 -46.71875 C 22.226562 -46.34375 21.816406 -46.101562 21.421875 -46 C 21.023438 -45.90625 20.523438 -45.859375 19.921875 -45.859375 C 18.242188 -45.859375 16.859375 -45.289062 15.765625 -44.15625 C 14.816406 -43.207031 14.007812 -41.796875 13.34375 -39.921875 C 12.675781 -38.046875 12.078125 -35.414062 11.546875 -32.03125 L 7.5625 -6.9375 C 7.53125 -6.675781 7.515625 -6.351562 7.515625 -5.96875 C 7.515625 -5.519531 7.570312 -5.207031 7.6875 -5.03125 C 7.800781 -4.863281 7.96875 -4.78125 8.1875 -4.78125 C 8.757812 -4.78125 9.289062 -5.175781 9.78125 -5.96875 C 10.28125 -6.769531 10.832031 -7.851562 11.4375 -9.21875 C 11.507812 -9.445312 11.601562 -9.632812 11.71875 -9.78125 C 11.832031 -9.9375 11.96875 -10.015625 12.125 -10.015625 C 12.46875 -10.015625 12.640625 -9.691406 12.640625 -9.046875 C 12.640625 -7.753906 12.21875 -6.347656 11.375 -4.828125 C 10.539062 -3.316406 9.5 -2.039062 8.25 -1 C 7 0.0390625 5.785156 0.5625 4.609375 0.5625 Z M 4.609375 0.5625 "/></g></g></g><g fill="#000000" fill-opacity="1"><g transform="translate(92.739261, 356.547458)"><g><path d="M 4.609375 0.5625 C 2.554688 0.5625 1.53125 -0.929688 1.53125 -3.921875 C 1.53125 -4.835938 1.609375 -5.75 1.765625 -6.65625 L 5.171875 -27.546875 C 5.972656 -32.660156 6.953125 -36.753906 8.109375 -39.828125 C 9.265625 -42.898438 10.8125 -45.195312 12.75 -46.71875 C 13.882812 -47.59375 15.007812 -48.179688 16.125 -48.484375 C 17.25 -48.785156 18.722656 -49.070312 20.546875 -49.34375 C 21.722656 -49.53125 22.488281 -49.671875 22.84375 -49.765625 C 23.207031 -49.859375 23.445312 -49.90625 23.5625 -49.90625 C 23.9375 -49.90625 24.125 -49.695312 24.125 -49.28125 C 24.125 -48.9375 23.984375 -48.523438 23.703125 -48.046875 C 23.421875 -47.578125 23.070312 -47.132812 22.65625 -46.71875 C 22.226562 -46.34375 21.816406 -46.101562 21.421875 -46 C 21.023438 -45.90625 20.523438 -45.859375 19.921875 -45.859375 C 18.242188 -45.859375 16.859375 -45.289062 15.765625 -44.15625 C 14.816406 -43.207031 14.007812 -41.796875 13.34375 -39.921875 C 12.675781 -38.046875 12.078125 -35.414062 11.546875 -32.03125 L 7.5625 -6.9375 C 7.53125 -6.675781 7.515625 -6.351562 7.515625 -5.96875 C 7.515625 -5.519531 7.570312 -5.207031 7.6875 -5.03125 C 7.800781 -4.863281 7.96875 -4.78125 8.1875 -4.78125 C 8.757812 -4.78125 9.289062 -5.175781 9.78125 -5.96875 C 10.28125 -6.769531 10.832031 -7.851562 11.4375 -9.21875 C 11.507812 -9.445312 11.601562 -9.632812 11.71875 -9.78125 C 11.832031 -9.9375 11.96875 -10.015625 12.125 -10.015625 C 12.46875 -10.015625 12.640625 -9.691406 12.640625 -9.046875 C 12.640625 -7.753906 12.21875 -6.347656 11.375 -4.828125 C 10.539062 -3.316406 9.5 -2.039062 8.25 -1 C 7 0.0390625 5.785156 0.5625 4.609375 0.5625 Z M 4.609375 0.5625 "/></g></g></g><g fill="#000000" fill-opacity="1"><g transform="translate(107.705075, 356.547458)"><g><path d="M 4.5 22.703125 C 2.820312 22.703125 1.394531 22.285156 0.21875 21.453125 C -0.945312 20.617188 -1.816406 19.582031 -2.390625 18.34375 C -2.960938 17.113281 -3.25 15.894531 -3.25 14.6875 C -3.25 13.394531 -2.929688 12.273438 -2.296875 11.328125 C -1.671875 10.378906 -0.96875 9.664062 -0.1875 9.1875 C 0.582031 8.71875 1.15625 8.484375 1.53125 8.484375 C 1.6875 8.484375 1.800781 8.539062 1.875 8.65625 C 1.945312 8.769531 1.984375 9.015625 1.984375 9.390625 C 2.023438 12.421875 2.414062 14.597656 3.15625 15.921875 C 3.894531 17.253906 5.269531 17.921875 7.28125 17.921875 C 10.351562 17.921875 12.613281 16.367188 14.0625 13.265625 C 14.394531 12.503906 14.664062 11.6875 14.875 10.8125 C 15.082031 9.9375 15.453125 8.265625 15.984375 5.796875 L 17.296875 -0.5625 L 18.4375 -5.921875 L 18.328125 -5.921875 C 16.878906 -3.867188 15.488281 -2.273438 14.15625 -1.140625 C 12.832031 -0.00390625 11.660156 0.5625 10.640625 0.5625 C 8.554688 0.5625 7.550781 -1.84375 7.625 -6.65625 L 7.96875 -19.625 C 8.007812 -20.582031 7.960938 -21.226562 7.828125 -21.5625 C 7.691406 -21.90625 7.4375 -22.078125 7.0625 -22.078125 C 6.675781 -22.078125 6.320312 -21.894531 6 -21.53125 C 5.675781 -21.175781 5.269531 -20.582031 4.78125 -19.75 C 4.40625 -19.144531 4.140625 -18.734375 3.984375 -18.515625 C 3.828125 -18.304688 3.640625 -18.203125 3.421875 -18.203125 C 3.191406 -18.203125 3.035156 -18.269531 2.953125 -18.40625 C 2.878906 -18.539062 2.84375 -18.78125 2.84375 -19.125 C 2.84375 -20.1875 3.210938 -21.351562 3.953125 -22.625 C 4.691406 -23.894531 5.640625 -24.957031 6.796875 -25.8125 C 7.953125 -26.664062 9.117188 -27.09375 10.296875 -27.09375 C 11.515625 -27.09375 12.367188 -26.585938 12.859375 -25.578125 C 13.347656 -24.578125 13.59375 -22.992188 13.59375 -20.828125 C 13.59375 -19.878906 13.578125 -19.140625 13.546875 -18.609375 L 13.265625 -11.375 C 13.179688 -9.863281 13.140625 -8.9375 13.140625 -8.59375 C 13.140625 -7.53125 13.210938 -6.804688 13.359375 -6.421875 C 13.515625 -6.046875 13.75 -5.859375 14.0625 -5.859375 C 14.695312 -5.859375 15.460938 -6.503906 16.359375 -7.796875 C 17.253906 -9.085938 18.117188 -10.753906 18.953125 -12.796875 C 19.785156 -14.847656 20.445312 -16.9375 20.9375 -19.0625 L 21.734375 -22.421875 C 22.003906 -23.597656 22.753906 -24.671875 23.984375 -25.640625 C 25.210938 -26.609375 26.4375 -27.09375 27.65625 -27.09375 C 28.414062 -27.09375 28.796875 -26.84375 28.796875 -26.34375 C 28.796875 -26.195312 28.71875 -25.960938 28.5625 -25.640625 C 28.414062 -25.316406 28.265625 -24.925781 28.109375 -24.46875 C 27.617188 -23.21875 27.085938 -21.242188 26.515625 -18.546875 L 23.5 -3.75 L 22.9375 -1.03125 C 22.21875 2.5 21.644531 5.078125 21.21875 6.703125 C 20.800781 8.335938 20.28125 9.828125 19.65625 11.171875 C 19.03125 12.523438 18.148438 13.921875 17.015625 15.359375 C 15.117188 17.710938 13.066406 19.523438 10.859375 20.796875 C 8.660156 22.066406 6.539062 22.703125 4.5 22.703125 Z M 4.5 22.703125 "/></g></g></g><g fill="#000000" fill-opacity="1"><g transform="translate(137.352191, 356.547458)"><g><path d="M 7.109375 0.5625 C 6.429688 0.5625 6.09375 0.351562 6.09375 -0.0625 C 6.09375 -0.207031 6.175781 -0.488281 6.34375 -0.90625 C 6.507812 -1.320312 6.632812 -1.910156 6.71875 -2.671875 C 6.863281 -3.703125 6.9375 -5.203125 6.9375 -7.171875 C 6.9375 -9.640625 6.804688 -12.65625 6.546875 -16.21875 C 6.359375 -18.34375 6.1875 -19.785156 6.03125 -20.546875 C 5.875 -21.304688 5.53125 -21.6875 5 -21.6875 C 4.625 -21.6875 4.300781 -21.492188 4.03125 -21.109375 C 3.769531 -20.734375 3.429688 -20.070312 3.015625 -19.125 C 2.785156 -18.59375 2.582031 -18.210938 2.40625 -17.984375 C 2.238281 -17.753906 2.046875 -17.640625 1.828125 -17.640625 C 1.441406 -17.640625 1.25 -17.941406 1.25 -18.546875 C 1.25 -19.691406 1.523438 -20.9375 2.078125 -22.28125 C 2.628906 -23.625 3.378906 -24.757812 4.328125 -25.6875 C 5.273438 -26.625 6.316406 -27.09375 7.453125 -27.09375 C 9.535156 -27.09375 10.863281 -25.515625 11.4375 -22.359375 C 11.738281 -20.429688 12.023438 -16.410156 12.296875 -10.296875 C 14.421875 -14.617188 16.085938 -18.945312 17.296875 -23.28125 C 19.273438 -25.820312 20.753906 -27.09375 21.734375 -27.09375 C 21.960938 -27.09375 22.101562 -27.015625 22.15625 -26.859375 C 22.21875 -26.703125 22.25 -26.457031 22.25 -26.125 L 22.3125 -19.34375 L 22.9375 -9.21875 C 24.644531 -11.945312 25.90625 -14.132812 26.71875 -15.78125 C 27.53125 -17.4375 27.9375 -18.910156 27.9375 -20.203125 C 27.9375 -20.691406 27.859375 -21.085938 27.703125 -21.390625 C 27.554688 -21.703125 27.332031 -22.015625 27.03125 -22.328125 C 26.726562 -22.648438 26.578125 -22.925781 26.578125 -23.15625 C 26.578125 -23.539062 26.8125 -24.046875 27.28125 -24.671875 C 27.757812 -25.296875 28.328125 -25.851562 28.984375 -26.34375 C 29.648438 -26.84375 30.25 -27.09375 30.78125 -27.09375 C 31.425781 -27.09375 31.984375 -26.722656 32.453125 -25.984375 C 32.929688 -25.242188 33.171875 -24.320312 33.171875 -23.21875 C 33.171875 -22.226562 32.976562 -21.285156 32.59375 -20.390625 C 32.21875 -19.503906 31.460938 -18.019531 30.328125 -15.9375 C 29.867188 -15.21875 29.375 -14.34375 28.84375 -13.3125 L 23.90625 -4.328125 C 23.375 -3.335938 22.566406 -2.273438 21.484375 -1.140625 C 20.398438 -0.00390625 19.382812 0.5625 18.4375 0.5625 C 17.90625 0.5625 17.640625 0.335938 17.640625 -0.109375 C 17.640625 -0.265625 17.675781 -0.472656 17.75 -0.734375 C 17.832031 -1.003906 17.890625 -1.210938 17.921875 -1.359375 C 18.265625 -2.460938 18.4375 -3.28125 18.4375 -3.8125 C 18.4375 -4.644531 18.367188 -6.285156 18.234375 -8.734375 C 18.109375 -11.179688 17.929688 -13.375 17.703125 -15.3125 L 17.640625 -15.3125 C 16.691406 -13.632812 15.863281 -11.953125 15.15625 -10.265625 C 14.457031 -8.578125 13.726562 -6.460938 12.96875 -3.921875 C 12.101562 -2.523438 11.15625 -1.425781 10.125 -0.625 C 9.101562 0.164062 8.097656 0.5625 7.109375 0.5625 Z M 7.109375 0.5625 "/></g></g></g><g fill="#000000" fill-opacity="1"><g transform="translate(170.811893, 356.547458)"><g><path d="M 6.71875 0.5625 C 4.9375 0.5625 3.53125 -0.0859375 2.5 -1.390625 C 1.476562 -2.703125 0.96875 -4.59375 0.96875 -7.0625 C 0.96875 -10.132812 1.734375 -13.222656 3.265625 -16.328125 C 4.804688 -19.441406 6.742188 -22.015625 9.078125 -24.046875 C 11.410156 -26.078125 13.675781 -27.09375 15.875 -27.09375 C 17.65625 -27.09375 19.039062 -26.425781 20.03125 -25.09375 C 21.019531 -23.769531 21.515625 -21.910156 21.515625 -19.515625 C 21.515625 -16.597656 20.78125 -13.5625 19.3125 -10.40625 C 17.851562 -7.257812 15.976562 -4.644531 13.6875 -2.5625 C 11.394531 -0.476562 9.070312 0.5625 6.71875 0.5625 Z M 9.78125 -4.375 C 10.84375 -4.375 11.8125 -4.929688 12.6875 -6.046875 C 13.5625 -7.171875 14.242188 -8.679688 14.734375 -10.578125 C 15.234375 -12.484375 15.484375 -14.550781 15.484375 -16.78125 C 15.484375 -18.675781 15.269531 -20.039062 14.84375 -20.875 C 14.425781 -21.71875 13.785156 -22.140625 12.921875 -22.140625 C 11.890625 -22.140625 10.925781 -21.613281 10.03125 -20.5625 C 9.144531 -19.519531 8.425781 -18.085938 7.875 -16.265625 C 7.332031 -14.453125 7.0625 -12.425781 7.0625 -10.1875 C 7.0625 -6.3125 7.96875 -4.375 9.78125 -4.375 Z M 9.78125 -4.375 "/></g></g></g><g fill="#000000" fill-opacity="1"><g transform="translate(193.630494, 356.547458)"><g><path d="M 6.71875 0.5625 C 4.9375 0.5625 3.53125 -0.0859375 2.5 -1.390625 C 1.476562 -2.703125 0.96875 -4.59375 0.96875 -7.0625 C 0.96875 -10.132812 1.734375 -13.222656 3.265625 -16.328125 C 4.804688 -19.441406 6.742188 -22.015625 9.078125 -24.046875 C 11.410156 -26.078125 13.675781 -27.09375 15.875 -27.09375 C 17.65625 -27.09375 19.039062 -26.425781 20.03125 -25.09375 C 21.019531 -23.769531 21.515625 -21.910156 21.515625 -19.515625 C 21.515625 -16.597656 20.78125 -13.5625 19.3125 -10.40625 C 17.851562 -7.257812 15.976562 -4.644531 13.6875 -2.5625 C 11.394531 -0.476562 9.070312 0.5625 6.71875 0.5625 Z M 9.78125 -4.375 C 10.84375 -4.375 11.8125 -4.929688 12.6875 -6.046875 C 13.5625 -7.171875 14.242188 -8.679688 14.734375 -10.578125 C 15.234375 -12.484375 15.484375 -14.550781 15.484375 -16.78125 C 15.484375 -18.675781 15.269531 -20.039062 14.84375 -20.875 C 14.425781 -21.71875 13.785156 -22.140625 12.921875 -22.140625 C 11.890625 -22.140625 10.925781 -21.613281 10.03125 -20.5625 C 9.144531 -19.519531 8.425781 -18.085938 7.875 -16.265625 C 7.332031 -14.453125 7.0625 -12.425781 7.0625 -10.1875 C 7.0625 -6.3125 7.96875 -4.375 9.78125 -4.375 Z M 9.78125 -4.375 "/></g></g></g><g fill="#000000" fill-opacity="1"><g transform="translate(216.449094, 356.547458)"><g><path d="M 4.71875 0.5625 C 3.539062 0.5625 2.617188 -0.0195312 1.953125 -1.1875 C 1.296875 -2.363281 0.96875 -3.941406 0.96875 -5.921875 C 0.96875 -8.992188 1.722656 -12.1875 3.234375 -15.5 C 4.753906 -18.820312 6.785156 -21.582031 9.328125 -23.78125 C 11.867188 -25.988281 14.601562 -27.09375 17.53125 -27.09375 L 17.703125 -27.09375 C 18.910156 -32.207031 20.015625 -36.0625 21.015625 -38.65625 C 22.023438 -41.257812 23.363281 -43.4375 25.03125 -45.1875 C 26.476562 -46.664062 27.851562 -47.660156 29.15625 -48.171875 C 30.46875 -48.679688 31.957031 -49.070312 33.625 -49.34375 C 34.84375 -49.53125 35.640625 -49.671875 36.015625 -49.765625 C 36.398438 -49.859375 36.628906 -49.90625 36.703125 -49.90625 C 37.003906 -49.90625 37.15625 -49.695312 37.15625 -49.28125 C 37.15625 -48.9375 37.019531 -48.523438 36.75 -48.046875 C 36.488281 -47.578125 36.171875 -47.132812 35.796875 -46.71875 C 35.378906 -46.375 34.960938 -46.144531 34.546875 -46.03125 C 34.128906 -45.914062 33.597656 -45.859375 32.953125 -45.859375 C 30.785156 -45.710938 29 -44.539062 27.59375 -42.34375 C 26.757812 -41.007812 26.054688 -39.242188 25.484375 -37.046875 C 24.921875 -34.847656 24.03125 -30.5625 22.8125 -24.1875 C 22.8125 -24.070312 22.242188 -20.960938 21.109375 -14.859375 C 20.390625 -11.097656 19.992188 -9.007812 19.921875 -8.59375 C 19.691406 -7.457031 19.578125 -6.582031 19.578125 -5.96875 C 19.578125 -5.550781 19.640625 -5.25 19.765625 -5.0625 C 19.898438 -4.875 20.101562 -4.78125 20.375 -4.78125 C 21.019531 -4.78125 21.597656 -5.160156 22.109375 -5.921875 C 22.617188 -6.679688 23.195312 -7.78125 23.84375 -9.21875 C 23.882812 -9.257812 23.941406 -9.363281 24.015625 -9.53125 C 24.085938 -9.695312 24.171875 -9.816406 24.265625 -9.890625 C 24.359375 -9.972656 24.460938 -10.015625 24.578125 -10.015625 C 24.878906 -10.015625 25.03125 -9.671875 25.03125 -8.984375 C 25.03125 -7.703125 24.632812 -6.3125 23.84375 -4.8125 C 23.050781 -3.3125 22.023438 -2.039062 20.765625 -1 C 19.515625 0.0390625 18.285156 0.5625 17.078125 0.5625 C 16.085938 0.5625 15.316406 0.203125 14.765625 -0.515625 C 14.210938 -1.234375 13.9375 -2.203125 13.9375 -3.421875 C 13.9375 -3.722656 13.976562 -4.175781 14.0625 -4.78125 L 14.34375 -6.71875 L 14.21875 -6.71875 C 12.820312 -4.59375 11.222656 -2.847656 9.421875 -1.484375 C 7.617188 -0.117188 6.050781 0.5625 4.71875 0.5625 Z M 7.96875 -5.0625 C 8.800781 -5.0625 9.867188 -5.800781 11.171875 -7.28125 C 12.484375 -8.757812 13.707031 -10.628906 14.84375 -12.890625 C 15.988281 -15.148438 16.75 -17.394531 17.125 -19.625 L 17.53125 -21.859375 C 16.582031 -22.421875 15.707031 -22.703125 14.90625 -22.703125 C 13.695312 -22.703125 12.472656 -21.953125 11.234375 -20.453125 C 10.003906 -18.953125 9 -17.015625 8.21875 -14.640625 C 7.445312 -12.273438 7.0625 -9.859375 7.0625 -7.390625 C 7.0625 -6.484375 7.125 -5.867188 7.25 -5.546875 C 7.382812 -5.222656 7.625 -5.0625 7.96875 -5.0625 Z M 7.96875 -5.0625 "/></g></g></g><g fill="#000000" fill-opacity="1"><g transform="translate(242.79575, 356.547458)"><g/></g></g><g fill="#000000" fill-opacity="1"><g transform="translate(258.728936, 356.547458)"><g><path d="M 14.21875 0.5625 C 10.625 0.5625 7.847656 -0.65625 5.890625 -3.09375 C 3.929688 -5.539062 2.953125 -9.175781 2.953125 -14 C 2.953125 -18.894531 3.945312 -23.332031 5.9375 -27.3125 C 7.9375 -31.300781 10.578125 -34.421875 13.859375 -36.671875 C 17.140625 -38.929688 20.65625 -40.0625 24.40625 -40.0625 C 26.800781 -40.0625 28.71875 -39.613281 30.15625 -38.71875 C 31.601562 -37.832031 32.328125 -36.609375 32.328125 -35.046875 C 32.328125 -34.066406 31.945312 -32.875 31.1875 -31.46875 C 30.84375 -30.9375 30.519531 -30.507812 30.21875 -30.1875 C 29.914062 -29.863281 29.570312 -29.703125 29.1875 -29.703125 C 28.851562 -29.703125 28.628906 -29.84375 28.515625 -30.125 C 28.398438 -30.414062 28.300781 -30.785156 28.21875 -31.234375 C 28.144531 -31.691406 28.070312 -32.054688 28 -32.328125 C 27.425781 -34.640625 25.660156 -35.796875 22.703125 -35.796875 C 20.128906 -35.796875 17.851562 -34.929688 15.875 -33.203125 C 13.90625 -31.472656 12.390625 -29.082031 11.328125 -26.03125 C 10.265625 -22.976562 9.734375 -19.519531 9.734375 -15.65625 C 9.734375 -11.894531 10.3125 -9.125 11.46875 -7.34375 C 12.625 -5.5625 14.453125 -4.671875 16.953125 -4.671875 C 19.421875 -4.671875 21.394531 -5.332031 22.875 -6.65625 C 24.351562 -7.988281 25.660156 -9.660156 26.796875 -11.671875 C 27.140625 -12.316406 27.539062 -12.640625 28 -12.640625 C 28.375 -12.640625 28.5625 -12.390625 28.5625 -11.890625 C 28.5625 -11.546875 28.445312 -11 28.21875 -10.25 C 27.238281 -6.90625 25.484375 -4.265625 22.953125 -2.328125 C 20.429688 -0.398438 17.519531 0.5625 14.21875 0.5625 Z M 14.21875 0.5625 "/></g></g></g><g fill="#000000" fill-opacity="1"><g transform="translate(290.481509, 356.547458)"><g><path d="M 8.828125 -29.015625 C 8.554688 -29.015625 8.378906 -29.0625 8.296875 -29.15625 C 8.222656 -29.257812 8.207031 -29.441406 8.25 -29.703125 L 9.046875 -34.203125 C 9.273438 -35.410156 9.804688 -36.382812 10.640625 -37.125 C 11.472656 -37.863281 12.664062 -38.234375 14.21875 -38.234375 L 14.6875 -38.234375 C 15.101562 -38.234375 15.289062 -38.023438 15.25 -37.609375 L 14.453125 -33.125 C 13.992188 -30.382812 12.25 -29.015625 9.21875 -29.015625 Z M 6.4375 0.5625 C 4.570312 0.5625 3.640625 -0.6875 3.640625 -3.1875 C 3.640625 -3.875 3.734375 -4.785156 3.921875 -5.921875 L 6.65625 -19.6875 C 6.726562 -20.375 6.765625 -20.789062 6.765625 -20.9375 C 6.765625 -21.46875 6.597656 -21.734375 6.265625 -21.734375 C 5.921875 -21.734375 5.519531 -21.457031 5.0625 -20.90625 C 4.601562 -20.363281 4.015625 -19.460938 3.296875 -18.203125 C 3.265625 -18.128906 3.179688 -17.96875 3.046875 -17.71875 C 2.910156 -17.476562 2.785156 -17.300781 2.671875 -17.1875 C 2.554688 -17.070312 2.441406 -17.015625 2.328125 -17.015625 C 1.992188 -17.015625 1.828125 -17.316406 1.828125 -17.921875 C 1.828125 -18.984375 2.28125 -20.242188 3.1875 -21.703125 C 4.09375 -23.171875 5.226562 -24.4375 6.59375 -25.5 C 7.96875 -26.5625 9.296875 -27.09375 10.578125 -27.09375 C 12.171875 -27.09375 12.96875 -26.03125 12.96875 -23.90625 C 12.96875 -23.289062 12.835938 -22.242188 12.578125 -20.765625 L 9.734375 -6.09375 C 9.648438 -5.789062 9.609375 -5.582031 9.609375 -5.46875 C 9.609375 -5.007812 9.820312 -4.78125 10.25 -4.78125 C 10.738281 -4.78125 11.296875 -5.175781 11.921875 -5.96875 C 12.546875 -6.769531 13.144531 -7.851562 13.71875 -9.21875 C 13.90625 -9.75 14.128906 -10.015625 14.390625 -10.015625 C 14.734375 -10.015625 14.90625 -9.691406 14.90625 -9.046875 C 14.90625 -7.722656 14.46875 -6.3125 13.59375 -4.8125 C 12.726562 -3.3125 11.640625 -2.039062 10.328125 -1 C 9.015625 0.0390625 7.71875 0.5625 6.4375 0.5625 Z M 6.4375 0.5625 "/></g></g></g><g fill="#000000" fill-opacity="1"><g transform="translate(307.552764, 356.547458)"><g><path d="M 7.90625 0.5625 C 6.65625 0.5625 5.726562 0.164062 5.125 -0.625 C 4.519531 -1.425781 4.21875 -2.695312 4.21875 -4.4375 C 4.21875 -5.539062 4.367188 -7.003906 4.671875 -8.828125 L 7 -22.140625 L 2.390625 -22.140625 C 1.972656 -22.140625 1.675781 -22.1875 1.5 -22.28125 C 1.332031 -22.375 1.25 -22.515625 1.25 -22.703125 C 1.25 -23.046875 1.492188 -23.519531 1.984375 -24.125 C 2.484375 -24.726562 3.046875 -25.273438 3.671875 -25.765625 C 4.296875 -26.265625 4.816406 -26.515625 5.234375 -26.515625 L 7.859375 -26.515625 L 8.3125 -29.484375 C 8.570312 -30.878906 9.359375 -32.128906 10.671875 -33.234375 C 11.984375 -34.335938 13.265625 -34.890625 14.515625 -34.890625 C 14.816406 -34.890625 15.0625 -34.832031 15.25 -34.71875 C 15.4375 -34.601562 15.53125 -34.429688 15.53125 -34.203125 C 15.53125 -34.046875 15.335938 -33.632812 14.953125 -32.96875 C 14.578125 -32.3125 14.296875 -31.394531 14.109375 -30.21875 L 13.484375 -26.515625 L 18.328125 -26.515625 C 18.773438 -26.515625 19.078125 -26.484375 19.234375 -26.421875 C 19.390625 -26.367188 19.46875 -26.25 19.46875 -26.0625 C 19.46875 -25.6875 19.203125 -25.179688 18.671875 -24.546875 C 18.140625 -23.921875 17.53125 -23.363281 16.84375 -22.875 C 16.15625 -22.382812 15.644531 -22.140625 15.3125 -22.140625 L 12.75 -22.140625 L 10.46875 -8.59375 C 10.207031 -7.257812 10.078125 -6.234375 10.078125 -5.515625 C 10.078125 -4.984375 10.160156 -4.613281 10.328125 -4.40625 C 10.492188 -4.195312 10.75 -4.09375 11.09375 -4.09375 C 12.34375 -4.09375 13.519531 -5.117188 14.625 -7.171875 C 14.738281 -7.429688 14.851562 -7.628906 14.96875 -7.765625 C 15.082031 -7.898438 15.210938 -7.96875 15.359375 -7.96875 C 15.742188 -7.96875 15.9375 -7.644531 15.9375 -7 C 15.9375 -6.007812 15.554688 -4.914062 14.796875 -3.71875 C 14.035156 -2.53125 13.035156 -1.519531 11.796875 -0.6875 C 10.566406 0.144531 9.269531 0.5625 7.90625 0.5625 Z M 7.90625 0.5625 "/></g></g></g><g fill="#000000" fill-opacity="1"><g transform="translate(327.18472, 356.547458)"><g><path d="M 4.5 22.703125 C 2.820312 22.703125 1.394531 22.285156 0.21875 21.453125 C -0.945312 20.617188 -1.816406 19.582031 -2.390625 18.34375 C -2.960938 17.113281 -3.25 15.894531 -3.25 14.6875 C -3.25 13.394531 -2.929688 12.273438 -2.296875 11.328125 C -1.671875 10.378906 -0.96875 9.664062 -0.1875 9.1875 C 0.582031 8.71875 1.15625 8.484375 1.53125 8.484375 C 1.6875 8.484375 1.800781 8.539062 1.875 8.65625 C 1.945312 8.769531 1.984375 9.015625 1.984375 9.390625 C 2.023438 12.421875 2.414062 14.597656 3.15625 15.921875 C 3.894531 17.253906 5.269531 17.921875 7.28125 17.921875 C 10.351562 17.921875 12.613281 16.367188 14.0625 13.265625 C 14.394531 12.503906 14.664062 11.6875 14.875 10.8125 C 15.082031 9.9375 15.453125 8.265625 15.984375 5.796875 L 17.296875 -0.5625 L 18.4375 -5.921875 L 18.328125 -5.921875 C 16.878906 -3.867188 15.488281 -2.273438 14.15625 -1.140625 C 12.832031 -0.00390625 11.660156 0.5625 10.640625 0.5625 C 8.554688 0.5625 7.550781 -1.84375 7.625 -6.65625 L 7.96875 -19.625 C 8.007812 -20.582031 7.960938 -21.226562 7.828125 -21.5625 C 7.691406 -21.90625 7.4375 -22.078125 7.0625 -22.078125 C 6.675781 -22.078125 6.320312 -21.894531 6 -21.53125 C 5.675781 -21.175781 5.269531 -20.582031 4.78125 -19.75 C 4.40625 -19.144531 4.140625 -18.734375 3.984375 -18.515625 C 3.828125 -18.304688 3.640625 -18.203125 3.421875 -18.203125 C 3.191406 -18.203125 3.035156 -18.269531 2.953125 -18.40625 C 2.878906 -18.539062 2.84375 -18.78125 2.84375 -19.125 C 2.84375 -20.1875 3.210938 -21.351562 3.953125 -22.625 C 4.691406 -23.894531 5.640625 -24.957031 6.796875 -25.8125 C 7.953125 -26.664062 9.117188 -27.09375 10.296875 -27.09375 C 11.515625 -27.09375 12.367188 -26.585938 12.859375 -25.578125 C 13.347656 -24.578125 13.59375 -22.992188 13.59375 -20.828125 C 13.59375 -19.878906 13.578125 -19.140625 13.546875 -18.609375 L 13.265625 -11.375 C 13.179688 -9.863281 13.140625 -8.9375 13.140625 -8.59375 C 13.140625 -7.53125 13.210938 -6.804688 13.359375 -6.421875 C 13.515625 -6.046875 13.75 -5.859375 14.0625 -5.859375 C 14.695312 -5.859375 15.460938 -6.503906 16.359375 -7.796875 C 17.253906 -9.085938 18.117188 -10.753906 18.953125 -12.796875 C 19.785156 -14.847656 20.445312 -16.9375 20.9375 -19.0625 L 21.734375 -22.421875 C 22.003906 -23.597656 22.753906 -24.671875 23.984375 -25.640625 C 25.210938 -26.609375 26.4375 -27.09375 27.65625 -27.09375 C 28.414062 -27.09375 28.796875 -26.84375 28.796875 -26.34375 C 28.796875 -26.195312 28.71875 -25.960938 28.5625 -25.640625 C 28.414062 -25.316406 28.265625 -24.925781 28.109375 -24.46875 C 27.617188 -23.21875 27.085938 -21.242188 26.515625 -18.546875 L 23.5 -3.75 L 22.9375 -1.03125 C 22.21875 2.5 21.644531 5.078125 21.21875 6.703125 C 20.800781 8.335938 20.28125 9.828125 19.65625 11.171875 C 19.03125 12.523438 18.148438 13.921875 17.015625 15.359375 C 15.117188 17.710938 13.066406 19.523438 10.859375 20.796875 C 8.660156 22.066406 6.539062 22.703125 4.5 22.703125 Z M 4.5 22.703125 "/></g></g></g></svg>